<?xml version="1.0" encoding="iso-8859-1"?>
<!-- Generator: Adobe Illustrator 19.0.0, SVG Export Plug-In . SVG Version: 6.00 Build 0)  -->
<svg version="1.1" id="Capa_1" xmlns="http://www.w3.org/2000/svg" xmlns:xlink="http://www.w3.org/1999/xlink" x="0px" y="0px"
	 viewBox="0 0 511.986 511.986" style="enable-background:new 0 0 511.986 511.986;" xml:space="preserve">
<g>
	<g>
		<g>
			<path d="M431.993,159.986c-5.463,0.053-10.876,1.049-16,2.944v-2.944c0.002-32.979-10.253-65.141-29.344-92.032l40.656-40.656
				L404.681,4.674l-39.072,39.072c-61.426-58.328-157.774-58.328-219.2,0L107.305,4.674L84.681,27.298l40.656,40.656
				c-19.091,26.891-29.346,59.053-29.344,92.032v2.944c-5.124-1.895-10.537-2.891-16-2.944c-26.51,0-48,21.49-48,48v128
				c0,26.51,21.49,48,48,48c5.463-0.053,10.876-1.049,16-2.944v34.944h48v96h96v-96h32v96h96v-96h48v-34.944
				c5.124,1.895,10.537,2.891,16,2.944c26.51,0,48-21.49,48-48v-128C479.993,181.476,458.503,159.986,431.993,159.986z
				 M95.993,335.986c0,8.837-7.163,16-16,16s-16-7.163-16-16v-128c0-8.837,7.163-16,16-16s16,7.163,16,16V335.986z M207.993,479.986
				h-32v-64h32V479.986z M335.993,479.986h-32v-64h32V479.986z M383.993,383.986h-256v-192h256V383.986z M127.993,159.986
				c0-70.692,57.308-128,128-128s128,57.308,128,128H127.993z M447.993,335.986c0,8.837-7.163,16-16,16s-16-7.163-16-16v-128
				c0-8.837,7.163-16,16-16s16,7.163,16,16V335.986z"/>
			<rect x="191.993" y="95.986" width="32" height="32"/>
			<rect x="287.993" y="95.986" width="32" height="32"/>
		</g>
	</g>
</g>
<g>
</g>
<g>
</g>
<g>
</g>
<g>
</g>
<g>
</g>
<g>
</g>
<g>
</g>
<g>
</g>
<g>
</g>
<g>
</g>
<g>
</g>
<g>
</g>
<g>
</g>
<g>
</g>
<g>
</g>
</svg>
